# xmcd CD database file
#
# Track frame offsets:
#	160
#	11650
#	45412
#	63562
#	79205
#	128282
#	156790
#	203062
#
# Disc length: 2976 seconds
#
# Revision: 0
# Processed by: cddbd v1.4PL0 Copyright (c) Steve Scherf et al.
# Submitted via: CDex 1.40Beta8
#
DISCID=5b0b9e08
DTITLE=Blues Cousins - Blues Cousins
DYEAR=1900
DGENRE=Blues
TTITLE0=I'm too tired
TTITLE1=The thrill is gone
TTITLE2=I'm drowning on dry land
TTITLE3=Shame, shame
TTITLE4=The personal manager
TTITLE5=Crossroads
TTITLE6=You hurt me
TTITLE7=Honey Hush
EXTD=ID3G: 0
EXTT0=
EXTT1=
EXTT2=
EXTT3=
EXTT4=
EXTT5=
EXTT6=
EXTT7=
PLAYORDER=
